<?xml version="1.0" standalone="no"?>
<!DOCTYPE svg PUBLIC "-//W3C//DTD SVG 20010904//EN"
 "http://www.w3.org/TR/2001/REC-SVG-20010904/DTD/svg10.dtd">
<svg version="1.0" xmlns="http://www.w3.org/2000/svg"
 width="1024.000000pt" height="1024.000000pt" viewBox="0 0 1024.000000 1024.000000"
 preserveAspectRatio="xMidYMid meet">

<g transform="translate(0.000000,1024.000000) scale(0.100000,-0.100000)"
fill="#000000" stroke="none">
<path d="M4423 7673 c15 -2 39 -2 55 0 15 2 2 4 -28 4 -30 0 -43 -2 -27 -4z"/>
<path d="M4803 7673 c15 -2 37 -2 50 0 12 2 0 4 -28 4 -27 0 -38 -2 -22 -4z"/>
<path d="M4298 7663 c12 -2 30 -2 40 0 9 3 -1 5 -23 4 -22 0 -30 -2 -17 -4z"/>
<path d="M4223 7653 c9 -2 23 -2 30 0 6 3 -1 5 -18 5 -16 0 -22 -2 -12 -5z"/>
<path d="M5043 7653 c9 -2 23 -2 30 0 6 3 -1 5 -18 5 -16 0 -22 -2 -12 -5z"/>
<path d="M4148 7643 c6 -2 18 -2 25 0 6 3 1 5 -13 5 -14 0 -19 -2 -12 -5z"/>
<path d="M5118 7643 c6 -2 18 -2 25 0 6 3 1 5 -13 5 -14 0 -19 -2 -12 -5z"/>
<path d="M4088 7633 c6 -2 18 -2 25 0 6 3 1 5 -13 5 -14 0 -19 -2 -12 -5z"/>
<path d="M5178 7633 c6 -2 18 -2 25 0 6 3 1 5 -13 5 -14 0 -19 -2 -12 -5z"/>
<path d="M4028 7623 c6 -2 18 -2 25 0 6 3 1 5 -13 5 -14 0 -19 -2 -12 -5z"/>
<path d="M3978 7613 c7 -3 16 -2 19 1 4 3 -2 6 -13 5 -11 0 -14 -3 -6 -6z"/>
<path d="M5298 7613 c7 -3 16 -2 19 1 4 3 -2 6 -13 5 -11 0 -14 -3 -6 -6z"/>
<path d="M3938 7603 c7 -3 16 -2 19 1 4 3 -2 6 -13 5 -11 0 -14 -3 -6 -6z"/>
<path d="M4510 7604 c-234 -20 -311 -28 -409 -45 -141 -24 -288 -59 -430 -104
l-109 -35 -21 -77 c-12 -43 -76 -280 -142 -528 -67 -247 -124 -453 -128 -457
-3 -4 -150 36 -326 88 -176 52 -338 97 -361 100 -92 14 -217 -33 -294 -110
-54 -53 -86 -118 -120 -241 -15 -55 -60 -217 -100 -359 -69 -246 -72 -263 -68
-340 6 -96 35 -168 96 -236 73 -83 85 -87 622 -235 375 -103 495 -137 502
-144 4 -3 -13 -73 -37 -155 -43 -147 -44 -149 -28 -195 86 -259 323 -685 534
-962 33 -44 57 -84 54 -89 -4 -6 -2 -9 3 -8 5 2 49 -44 97 -102 205 -245 446
-481 704 -688 132 -106 91 -101 345 -45 352 77 742 221 1035 382 41 23 75 41
77 41 7 0 143 85 244 153 218 146 464 354 473 400 l4 22 2 -23 c1 -15 -19 -44
-59 -87 -33 -35 -60 -62 -60 -59 0 2 -17 -11 -37 -30 -21 -19 -56 -47 -78 -62
-22 -14 -42 -30 -45 -34 -3 -4 -66 -49 -140 -101 -74 -51 -137 -95 -140 -99
-3 -3 -31 -19 -62 -35 -31 -16 -54 -33 -52 -37 3 -4 -1 -8 -9 -8 -8 0 -89 -38
-178 -84 -90 -47 -188 -94 -218 -106 -30 -12 -73 -30 -96 -40 -185 -84 -513
-181 -784 -231 l-104 -19 -63 45 c-35 25 -66 50 -69 55 -4 6 -12 7 -18 4 -7
-4 -9 -4 -5 1 8 9 -150 142 -164 138 -4 -2 -7 0 -5 5 1 4 -1 9 -6 12 -13 8
-267 261 -328 327 -32 33 -61 58 -64 55 -4 -4 -5 -2 -3 4 2 7 -13 28 -33 47
-20 20 -35 37 -33 39 1 2 -19 28 -46 57 -26 29 -50 56 -52 59 -1 4 -6 6 -10 5
-5 -2 -7 0 -5 5 1 4 -1 7 -5 7 -4 0 -15 11 -24 25 -10 14 -28 37 -42 52 -14
16 -21 31 -17 39 5 8 4 10 -3 5 -8 -5 -12 1 -12 14 0 12 -4 19 -10 15 -5 -3
-6 -13 -3 -23 6 -15 3 -14 -16 2 -12 11 -20 25 -18 30 3 6 0 22 -6 36 -5 14
-11 31 -13 38 -4 22 -26 42 -37 35 -6 -3 -7 -1 -3 5 4 7 2 12 -4 12 -6 0 -8 5
-5 10 3 6 2 10 -3 10 -12 0 -45 50 -45 67 0 7 -4 10 -9 7 -5 -4 -7 -12 -4 -20
3 -7 0 -16 -6 -20 -6 -4 -8 -3 -4 4 3 6 1 14 -5 18 -8 5 -8 8 0 14 7 3 9 14 5
23 -7 18 -24 23 -24 7 0 -5 5 -10 12 -10 6 0 9 -3 6 -6 -9 -8 -50 15 -44 25 3
5 -3 16 -14 26 -11 10 -20 22 -20 27 0 5 -12 25 -26 43 -15 20 -23 39 -18 47
4 7 4 10 -1 6 -11 -11 -38 29 -29 43 3 6 0 15 -7 20 -12 7 -12 10 0 21 8 7 11
8 8 2 -4 -7 -1 -17 7 -23 11 -9 13 -6 11 13 -5 39 -36 85 -54 79 -13 -4 -13
-3 -3 5 12 8 11 15 -2 41 -16 31 -36 42 -36 20 0 -46 -103 159 -139 276 l-21
68 35 130 c20 71 34 131 33 132 -4 4 -251 73 -358 101 -112 29 -163 46 -171
57 -3 4 -10 7 -15 6 -16 -5 -84 12 -84 20 0 5 8 12 17 15 13 5 14 9 4 19 -12
12 -24 2 -34 -27 -3 -8 -198 39 -261 64 -12 4 -24 7 -28 6 -4 0 -15 9 -23 22
-9 12 -22 22 -30 22 -7 0 -20 7 -29 15 -8 9 -19 14 -23 13 -13 -4 -103 83 -97
93 3 5 0 9 -6 9 -18 0 -58 100 -70 175 -15 91 -11 116 66 400 144 532 153 555
238 641 57 56 126 96 209 119 l52 15 -45 -5 c-113 -14 -266 -128 -323 -241
-46 -91 -237 -785 -237 -862 0 -173 101 -346 245 -424 29 -15 245 -80 505
-153 250 -70 457 -128 458 -130 2 -2 -10 -57 -27 -123 -36 -137 -35 -144 20
-284 107 -271 317 -630 544 -933 257 -341 623 -705 952 -945 l33 -23 117 22
c364 71 673 170 1003 321 350 160 727 410 951 630 83 82 76 66 120 269 6 28
15 51 20 51 6 0 148 -39 317 -86 453 -128 455 -128 534 -116 135 20 246 97
307 212 47 88 105 358 98 458 -5 69 -4 76 23 115 35 51 70 204 70 305 0 163
-98 338 -225 401 -26 13 -209 70 -407 127 -198 57 -362 105 -365 107 -2 3 25
141 61 308 35 167 72 340 81 384 9 44 25 119 36 167 10 48 19 92 19 97 0 13
-159 210 -254 315 -136 150 -400 379 -549 476 -68 45 -51 30 92 -76 246 -183
435 -373 669 -669 l32 -40 -34 -155 c-33 -148 -99 -454 -147 -682 -13 -58 -26
-105 -30 -102 -4 2 -5 -4 -3 -13 4 -14 85 -41 369 -122 201 -57 387 -114 415
-127 66 -30 132 -100 171 -180 26 -53 30 -67 19 -77 -9 -9 -11 -9 -6 0 8 14
-8 51 -52 121 -29 47 -35 52 -50 40 -15 -11 -15 -11 -5 3 11 13 10 19 -5 31
-30 27 -101 58 -107 48 -3 -6 -12 -10 -18 -10 -7 0 -6 4 3 10 8 5 11 12 7 16
-3 4 -13 1 -22 -6 -10 -8 -29 -10 -58 -6 -68 10 -177 40 -177 48 0 4 -7 4 -17
1 -12 -5 -14 -3 -8 7 6 10 4 12 -7 7 -16 -6 -26 -3 -253 60 -274 76 -266 73
-261 91 6 18 95 433 151 697 18 88 40 188 48 223 17 73 27 54 -112 217 -261
306 -606 588 -967 788 -348 194 -750 323 -1167 377 -146 18 -453 32 -547 24z
m415 -225 c560 -48 1046 -227 1535 -568 194 -134 430 -349 575 -523 l73 -87
-20 -88 c-21 -93 -128 -585 -156 -715 -9 -43 -20 -78 -25 -78 -17 0 -806 224
-999 284 l-37 11 23 27 22 28 219 -64 c492 -143 726 -208 732 -203 5 5 86 368
152 681 l21 99 -37 46 c-66 83 -306 316 -410 398 -279 222 -551 380 -853 496
-474 182 -1019 237 -1548 156 -121 -18 -397 -81 -409 -92 -2 -3 -24 -76 -49
-163 -24 -86 -45 -159 -47 -160 -8 -8 -57 11 -57 23 0 33 93 349 105 359 23
17 297 82 443 104 252 38 520 49 747 29z m602 -433 c21 -19 28 -33 28 -64 0
-46 -17 -70 -62 -88 -28 -12 -31 -17 -28 -46 3 -18 10 -118 16 -223 5 -104 12
-191 14 -193 2 -2 51 40 109 93 l105 97 -6 43 c-4 35 -2 46 16 64 25 25 48 27
79 5 44 -30 19 -114 -34 -114 -16 0 -25 -7 -29 -23 -34 -133 -63 -263 -59
-266 5 -6 175 72 261 119 58 33 70 43 66 60 -16 60 35 107 82 76 18 -12 25
-25 25 -50 0 -39 -19 -58 -56 -58 -27 0 -43 -31 -181 -333 -25 -55 -49 -103
-52 -107 -6 -6 -1010 281 -1074 307 -17 7 -18 17 -12 114 4 58 10 170 13 248
7 142 7 143 -17 161 -43 31 -20 112 32 112 47 0 77 -71 42 -100 -8 -7 -15 -19
-15 -26 0 -25 193 -324 209 -324 5 0 24 61 42 135 l33 135 -21 15 c-27 19 -35
63 -17 97 19 37 50 45 83 21 37 -28 40 -75 7 -108 l-25 -25 46 -122 c24 -68
47 -131 50 -140 3 -10 8 -18 12 -18 5 0 151 229 211 332 l22 38 -21 26 c-33
41 -28 96 10 128 38 32 60 33 96 2z m-1769 -242 c12 -4 22 -12 22 -20 0 -7
-22 -92 -49 -189 l-49 -177 32 -13 c17 -7 46 -16 63 -20 42 -8 48 -19 33 -56
-14 -33 -9 -33 -143 10 l-84 26 61 222 c64 232 63 230 114 217z m381 -103 c46
-24 71 -55 71 -90 0 -49 -83 -323 -106 -350 -19 -22 -30 -26 -76 -26 -74 1
-143 33 -165 79 -16 35 -16 38 25 193 44 165 59 198 95 213 32 14 109 4 156
-19z m286 -82 c30 -11 62 -30 70 -42 18 -25 19 -71 4 -115 -10 -30 -11 -30
-47 -18 -34 12 -37 16 -34 45 4 40 -12 61 -49 61 -21 0 -32 -7 -40 -24 -18
-38 -4 -68 51 -110 71 -54 85 -84 69 -149 -15 -66 -34 -104 -58 -117 -31 -16
-102 -11 -148 9 -57 26 -77 59 -69 113 10 66 17 73 61 58 32 -11 36 -15 30
-37 -9 -38 3 -61 37 -68 36 -8 55 7 64 51 5 28 1 36 -55 84 -75 67 -87 92 -72
160 13 58 30 88 63 107 32 18 59 16 123 -8z m-1690 -199 c129 -42 168 -62 201
-105 39 -52 41 -109 9 -220 -14 -49 -29 -93 -33 -96 -6 -6 -171 37 -180 46 -2
2 4 35 14 74 18 68 18 71 0 90 -17 19 -105 51 -138 51 -8 0 -22 -6 -31 -12
-19 -15 -179 -579 -175 -618 4 -31 55 -58 126 -67 45 -5 51 -3 65 18 9 13 21
47 28 74 6 28 14 53 18 57 5 6 178 -38 190 -48 6 -5 -59 -188 -77 -216 -56
-86 -149 -101 -314 -54 -31 10 -59 23 -62 31 -3 8 -11 15 -18 15 -9 0 -8 -3 2
-10 13 -8 12 -10 -3 -10 -9 0 -25 9 -34 20 -10 11 -22 20 -28 20 -5 0 -3 -5 5
-10 8 -5 10 -10 5 -10 -20 0 -88 64 -101 96 -22 51 -17 105 20 237 19 67 62
221 96 342 66 234 75 258 112 292 66 62 141 65 303 13z m468 -141 c69 -20 78
-25 74 -43 -2 -12 -28 -106 -56 -209 -29 -104 -51 -190 -49 -191 2 -1 50 -16
108 -33 73 -21 107 -27 111 -19 4 6 31 99 60 206 29 107 54 197 56 199 1 2 20
-1 40 -7 21 -6 63 -18 94 -27 l56 -15 -84 -303 c-46 -166 -108 -392 -139 -502
-30 -109 -56 -201 -58 -203 -4 -3 -175 43 -181 50 -3 2 20 93 50 201 30 108
55 201 55 205 0 11 -219 72 -225 63 -4 -8 -95 -333 -103 -369 -2 -13 -10 -26
-16 -28 -6 -2 -50 8 -97 23 l-87 28 23 80 c13 44 71 253 130 465 59 212 112
402 117 423 8 27 16 36 27 33 9 -3 51 -15 94 -27z m1717 -64 c102 -31 334 -98
515 -151 182 -52 336 -97 343 -99 9 -3 5 -20 -14 -62 -14 -32 -30 -68 -35 -80
-5 -13 -13 -23 -19 -23 -6 0 -223 61 -483 136 -260 75 -483 140 -497 143 -27
8 -26 3 -22 131 1 40 6 60 15 60 6 0 95 -25 197 -55z m-810 -193 l95 -28 -1
-35 c0 -19 -4 -180 -9 -359 -4 -179 -9 -328 -11 -331 -2 -3 -4 -81 -4 -173 -1
-127 -5 -169 -15 -172 -7 -3 -48 5 -91 19 l-79 24 -2 97 c0 54 -3 99 -5 100
-1 1 -55 17 -118 35 -132 38 -117 44 -176 -72 -27 -52 -39 -67 -51 -63 -9 4
-44 14 -78 22 -34 9 -67 19 -74 24 -10 6 13 56 96 206 61 110 166 300 233 424
170 311 169 310 183 310 7 0 55 -13 107 -28z m501 -144 l110 -31 -7 -171 c-3
-94 -9 -249 -13 -344 -3 -94 -3 -172 0 -172 3 0 74 132 158 293 84 160 156
296 160 300 7 7 180 -36 207 -52 7 -4 -2 -59 -29 -166 -121 -496 -208 -839
-211 -842 -7 -8 -166 40 -166 50 0 9 123 499 139 555 5 17 7 32 3 32 -4 0 -70
-124 -147 -275 -77 -151 -144 -275 -149 -275 -5 0 -36 7 -69 17 l-59 16 6 151
c11 292 15 491 11 480 -3 -5 -38 -140 -79 -300 -65 -259 -75 -289 -92 -286
-50 8 -154 44 -154 53 0 9 246 960 255 987 6 16 0 17 126 -20z m914 -263 c253
-72 286 -96 293 -210 4 -71 -64 -362 -101 -429 -49 -90 -123 -105 -286 -62
l-90 24 -10 -35 c-6 -19 -22 -87 -36 -151 -15 -65 -28 -122 -30 -128 -3 -9
-28 -5 -85 11 -45 13 -84 26 -88 29 -3 4 6 57 21 119 99 412 208 864 212 875
3 7 13 11 22 8 10 -3 90 -26 178 -51z m505 -139 c69 -21 75 -25 72 -47 -2 -13
-30 -134 -62 -269 -61 -256 -160 -688 -160 -701 0 -6 -167 35 -176 43 -3 4
110 502 180 794 25 105 46 194 46 197 0 11 21 8 100 -17z m511 -133 c123 -58
160 -120 167 -283 4 -99 -16 -273 -35 -304 -4 -6 -6 -19 -4 -30 2 -12 -1 -16
-10 -11 -8 5 -10 4 -5 -3 13 -22 -53 -210 -75 -213 -28 -4 -39 -3 -39 4 0 4 0
12 0 17 0 6 5 10 11 10 5 0 8 -4 5 -8 -3 -5 0 -9 7 -9 7 0 13 12 13 26 1 14
-1 20 -3 13 -3 -6 -9 -10 -14 -7 -4 3 -14 -3 -20 -14 -7 -10 -18 -17 -25 -14
-18 7 -28 -17 -14 -30 10 -9 12 -8 7 5 -4 11 -2 15 7 12 7 -3 12 -18 11 -35
-1 -17 3 -28 9 -26 6 2 11 12 11 22 0 10 8 19 18 21 9 1 17 1 17 0 0 -8 -52
-71 -58 -69 -13 3 -42 -29 -35 -40 3 -6 1 -7 -5 -3 -8 5 -9 13 -2 25 5 10 6
21 2 25 -3 4 2 4 13 0 11 -4 17 -4 13 1 -4 4 -3 17 3 28 11 19 11 19 -15 1
-14 -11 -26 -27 -26 -36 0 -10 -3 -18 -7 -18 -5 0 -14 -12 -21 -27 -9 -20 -9
-24 0 -15 17 17 33 15 19 -2 -23 -27 -153 -48 -166 -26 -4 6 -11 8 -16 4 -15
-9 -109 26 -109 41 0 8 -6 12 -14 9 -22 -8 -93 73 -113 130 -28 79 -25 279 6
416 55 245 134 386 245 436 53 24 171 13 247 -23z m405 -129 c46 -14 84 -28
84 -32 0 -11 37 -329 57 -494 10 -82 20 -148 23 -148 3 0 14 39 23 88 29 140
109 497 112 500 6 6 155 -41 155 -50 0 -9 -33 -3 -94 19 -42 14 -52 16 -43 7
3 -3 1 -18 -4 -32 -7 -17 -6 -29 1 -36 8 -8 9 -6 4 8 -7 18 -6 18 22 0 16 -10
31 -20 34 -22 3 -2 -12 -18 -33 -36 -36 -30 -37 -33 -21 -47 15 -12 16 -12 10
9 -5 13 -3 22 3 22 6 0 11 -9 11 -20 0 -11 7 -20 15 -20 8 0 15 -4 15 -9 0 -5
3 -17 7 -27 5 -13 0 -11 -17 6 l-24 24 -13 -30 c-12 -28 -17 -20 -13 20 1 11
-3 15 -9 12 -7 -4 -11 2 -12 16 -1 20 -2 21 -6 3 -3 -11 -10 -26 -15 -32 -7
-9 -7 -13 0 -13 6 0 12 5 14 12 3 9 6 9 12 -1 5 -8 1 -14 -12 -18 -11 -3 -24
-17 -28 -31 -4 -15 -8 -29 -9 -32 -16 -53 -25 -92 -29 -122 -2 -21 -7 -42 -11
-48 -3 -6 0 -7 9 -4 11 4 16 0 16 -11 0 -9 -4 -13 -10 -10 -5 3 -10 -1 -10
-10 0 -9 4 -14 9 -11 5 3 11 -1 15 -9 3 -10 -1 -15 -14 -15 -12 0 -23 -12 -31
-35 -22 -61 -40 -46 -54 43 -4 23 -11 40 -16 36 -5 -3 -9 7 -9 23 0 21 -3 24
-9 13 -6 -8 -7 -18 -5 -22 3 -4 -4 -8 -15 -8 -12 0 -21 -7 -21 -15 0 -8 -7
-15 -15 -15 -18 0 -20 -16 -2 -23 7 -3 4 -6 -6 -6 -13 -1 -17 -6 -13 -19 10
-30 14 -112 6 -117 -3 -2 -14 58 -24 133 -9 75 -19 152 -23 170 -5 33 -23 45
-23 15 0 -34 -34 -173 -42 -173 -4 0 -8 7 -8 15 0 18 -49 64 -67 65 -27 0 -11
20 16 20 23 0 30 -5 33 -22 5 -33 27 -35 24 -1 -3 24 -8 28 -40 31 -38 3 -53
32 -17 32 22 0 37 17 26 28 -4 4 -10 1 -12 -5 -7 -19 -23 -16 -24 5 -1 9 -7
-1 -15 -23 l-14 -40 4 35 c2 19 7 43 11 53 6 13 3 16 -9 11 -10 -4 -15 -12
-13 -18 3 -7 -1 -23 -9 -37 -15 -28 -18 -42 -5 -35 5 3 3 -11 -4 -32 -18 -54
-25 -112 -14 -112 5 0 22 -11 37 -25 l27 -25 -28 0 c-26 0 -27 -1 -12 -16 8
-9 22 -14 29 -11 10 4 12 0 9 -14 -6 -21 -29 -26 -36 -6 -2 6 -8 9 -12 5 -5
-4 4 -19 19 -33 15 -14 23 -25 18 -25 -19 0 -61 52 -54 68 5 14 4 15 -10 2 -8
-8 -15 -21 -14 -30 1 -8 -5 -14 -12 -12 -8 1 -12 -3 -9 -10 2 -7 -2 -25 -9
-40 -8 -15 -13 -31 -12 -35 2 -12 -24 -104 -29 -100 -3 4 200 939 212 975 6
16 4 16 101 -14z m1123 -218 c-3 -3 -11 5 -18 17 -13 21 -12 21 5 5 10 -10 16
-20 13 -22z m-296 -12 c85 -27 167 -79 167 -107 0 -6 -15 5 -34 25 -35 37 -97
61 -227 89 -95 20 -200 -9 -169 -46 7 -8 10 -18 6 -22 -3 -3 -6 -2 -6 4 0 5
-7 10 -15 10 -18 0 -19 -9 -2 -26 8 -9 8 -12 0 -7 -17 9 -45 -23 -38 -44 3
-10 1 -21 -5 -25 -5 -3 -10 -22 -10 -41 0 -21 -4 -33 -10 -29 -5 3 -10 -4 -9
-17 0 -13 -4 -39 -9 -58 l-10 -35 -1 30 c-2 51 45 223 72 263 52 79 132 89
300 36z m-396 -16 c-3 -8 -6 -5 -6 6 -1 11 2 17 5 13 3 -3 4 -12 1 -19z
m-3890 -72 c-3 -6 -16 -55 -31 -108 l-26 -96 56 -124 c107 -237 260 -496 423
-716 62 -83 71 -99 49 -85 -7 4 -22 9 -33 11 -19 3 -19 2 0 -12 11 -8 27 -13
37 -11 11 3 36 -21 75 -68 156 -193 359 -399 577 -586 127 -108 95 -104 336
-45 521 128 1001 360 1400 678 41 32 92 75 114 95 24 23 35 28 28 16 -6 -12
-24 -31 -41 -44 -17 -13 -28 -28 -24 -34 3 -5 1 -7 -5 -3 -6 3 -18 -4 -26 -16
-9 -12 -16 -19 -16 -15 0 7 -40 -25 -82 -65 -10 -10 -20 -17 -22 -15 -2 1 -18
-10 -35 -26 -17 -15 -31 -25 -31 -22 0 3 -11 -2 -25 -11 -14 -9 -22 -21 -18
-27 3 -6 1 -7 -5 -3 -9 5 -108 -52 -212 -123 -14 -10 -101 -55 -195 -102 -93
-46 -171 -87 -173 -91 -2 -5 -8 -8 -14 -8 -27 0 -127 -44 -121 -53 3 -5 1 -7
-5 -4 -5 4 -63 -12 -129 -34 -125 -44 -502 -145 -571 -152 -31 -4 -45 -1 -58
14 -9 10 -14 19 -11 19 9 0 -55 57 -105 94 -21 16 -38 25 -38 21 0 -4 -6 -2
-14 4 -10 9 -16 9 -21 1 -5 -8 -11 -8 -19 -1 -7 6 -17 7 -21 3 -5 -4 -5 -1 -1
6 6 10 11 10 21 2 24 -20 24 5 -1 33 -13 16 -24 25 -24 21 0 -4 -11 3 -25 16
-14 13 -23 26 -20 29 8 7 -107 121 -116 116 -4 -3 -19 8 -32 25 -30 36 -42 39
-27 8 11 -22 10 -22 -4 -4 -12 14 -13 23 -5 33 6 7 9 14 5 14 -3 1 -12 2 -18
3 -7 1 -12 7 -11 14 2 7 -3 12 -11 12 -9 0 -12 -7 -9 -20 3 -11 9 -20 14 -20
5 0 9 -5 9 -11 0 -8 -5 -8 -15 1 -8 7 -15 19 -15 26 0 8 -5 14 -11 14 -5 0 -7
-5 -3 -12 4 -7 3 -8 -4 -4 -7 4 -12 14 -12 22 0 8 -4 13 -9 10 -5 -3 -14 1
-21 9 -7 8 -9 15 -6 15 4 0 2 9 -4 19 -7 13 -7 22 0 26 5 3 10 13 10 21 0 8
-4 13 -8 10 -4 -2 -14 9 -21 25 -11 25 -15 27 -33 18 -17 -9 -18 -8 -9 9 12
23 3 36 -15 21 -11 -9 -22 -3 -49 24 -19 19 -35 33 -35 30 0 -17 -119 142
-136 183 -7 17 -21 35 -30 38 -14 5 -15 9 -5 19 9 9 14 9 20 -2 6 -8 11 -9 15
-3 9 15 -10 25 -33 17 -12 -4 -23 2 -33 17 -19 30 -12 57 8 31 13 -17 13 -17
14 0 0 9 -3 17 -7 18 -5 0 -16 2 -26 4 -10 2 -15 -1 -11 -8 3 -7 -1 -3 -10 7
-8 10 -13 22 -11 26 2 4 -5 17 -16 28 -11 12 -18 22 -15 22 3 0 -6 12 -20 27
-13 14 -22 28 -20 31 3 2 -3 12 -12 22 -30 32 -134 239 -126 251 4 7 3 9 -3 6
-13 -8 -36 41 -27 55 4 6 3 8 -2 5 -11 -6 -84 151 -84 179 0 10 9 50 19 88 11
39 25 90 31 113 10 41 11 42 41 31 17 -6 28 -16 26 -22z m3873 -24 c0 -15 -2
-15 -10 -2 -13 20 -13 33 0 25 6 -3 10 -14 10 -23z m587 -34 c-3 -8 -6 -5 -6
6 -1 11 2 17 5 13 3 -3 4 -12 1 -19z m-602 -20 c-11 -55 -16 -68 -26 -68 -5 0
-9 7 -9 16 0 8 -4 13 -9 10 -5 -4 -7 4 -3 16 l5 22 8 -22 c12 -32 15 -27 11
16 -2 28 -1 33 7 22 9 -13 11 -13 11 3 0 9 3 17 6 17 3 0 3 -15 -1 -32z m782
-95 c-3 -10 -5 -4 -5 12 0 17 2 24 5 18 2 -7 2 -21 0 -30z m-343 -22 c-4 -23
-9 -40 -11 -37 -3 3 -2 23 2 46 4 23 9 39 11 37 3 -2 2 -23 -2 -46z m326 -73
c-21 -88 -40 -126 -78 -155 l-37 -27 42 47 c33 39 45 63 59 122 10 41 20 73
22 70 2 -2 -1 -28 -8 -57z m-1304 5 c2 -22 1 -23 -12 -6 -17 23 -17 30 -1 30
6 0 13 -11 13 -24z m988 -177 c23 -21 32 -33 21 -25 -63 43 -213 177 -227 203
-10 18 103 -79 206 -178z m-753 151 c-10 -9 -11 -8 -5 6 3 10 9 15 12 12 3 -3
0 -11 -7 -18z m-254 -14 c-3 -3 -11 -2 -17 2 -9 6 -9 10 1 16 14 8 27 -7 16
-18z m493 -76 c-6 -35 -16 -70 -21 -78 -6 -9 -7 -3 -3 19 5 27 3 32 -12 33
-17 1 -17 2 -1 6 11 3 22 21 29 48 17 64 22 46 8 -28z m-410 43 c0 -11 -2 -20
-4 -20 -2 0 -6 9 -9 20 -3 11 -1 20 4 20 5 0 9 -9 9 -20z m-2342 -193 l102
-172 -27 -23 c-16 -12 -33 -20 -39 -18 -5 2 -21 -4 -34 -14 -20 -15 -28 -16
-40 -7 -13 10 -13 10 -1 -5 12 -17 15 -17 42 3 16 11 29 18 29 15 0 -11 -121
-87 -129 -82 -5 3 -15 -2 -22 -12 -13 -16 -13 -16 6 -2 19 14 19 14 6 -2 -18
-24 -45 -24 -37 -1 4 10 4 14 0 10 -8 -7 -39 39 -144 214 -47 78 -58 104 -48
110 7 5 60 42 118 83 58 41 107 75 110 75 3 0 51 -77 108 -172z m2295 118 c-3
-9 -8 -14 -10 -11 -3 3 -2 9 2 15 9 16 15 13 8 -4z m7 -106 c-11 -45 -26 -66
-27 -36 0 6 -4 21 -8 32 l-7 20 17 -20 c17 -20 17 -20 12 4 -3 13 -3 37 0 54
5 24 7 26 15 12 6 -10 5 -34 -2 -66z m-20 61 c0 -5 -5 -10 -11 -10 -5 0 -7 5
-4 10 3 6 8 10 11 10 2 0 4 -4 4 -10z m-80 -40 c0 -5 -4 -10 -10 -10 -5 0 -10
5 -10 10 0 6 5 10 10 10 6 0 10 -4 10 -10z m257 -37 c-3 -10 -5 -4 -5 12 0 17
2 24 5 18 2 -7 2 -21 0 -30z m442 -1 c36 -10 67 -24 69 -32 3 -9 0 -10 -9 -4
-8 5 -18 9 -24 10 -5 2 -32 9 -60 18 -62 20 -63 20 -68 -1 -4 -14 -5 -12 -6 5
-1 27 13 28 98 4z m-1559 -110 c0 -8 -5 -10 -12 -6 -8 5 -9 2 -5 -10 4 -10 -2
-54 -13 -99 -48 -202 -60 -257 -60 -274 -1 -17 -1 -17 -15 0 -7 11 -11 26 -8
35 4 10 2 13 -5 8 -8 -5 -10 -2 -6 9 6 14 8 14 19 -2 12 -16 13 -15 12 9 -1
14 -5 24 -9 21 -5 -2 -8 1 -8 8 0 8 -4 9 -13 0 -10 -8 -14 -7 -14 4 0 8 4 12
9 9 4 -3 8 0 8 5 0 6 -10 12 -22 12 -16 1 -18 3 -6 6 9 2 19 10 22 18 3 10 0
12 -11 8 -12 -5 -14 -3 -8 7 5 9 4 11 -4 6 -6 -4 -9 -12 -6 -17 7 -10 -24 -7
-42 4 -9 6 -11 3 -7 -8 4 -9 12 -14 19 -12 6 3 12 0 12 -6 0 -10 -28 -13 -66
-8 -5 0 -11 12 -15 24 -5 21 -12 24 -51 25 -25 0 -45 -4 -45 -9 0 -5 -9 -18
-20 -29 -12 -12 -18 -25 -15 -30 9 -15 25 -12 25 5 0 10 6 12 18 8 15 -6 15
-5 3 10 -18 23 -8 32 19 17 16 -9 19 -15 10 -25 -8 -10 -8 -15 1 -21 19 -11
59 -13 59 -2 0 5 -10 6 -22 2 -21 -6 -22 -5 -8 11 11 14 12 19 3 22 -15 5 -17
33 -3 33 6 0 10 -7 10 -15 0 -8 10 -25 22 -37 14 -14 18 -23 10 -26 -7 -2 -10
-8 -7 -13 4 -5 -2 -6 -11 -2 -11 4 -15 3 -10 -5 3 -6 2 -13 -3 -16 -5 -4 -13
-1 -17 5 -5 8 -3 9 6 4 9 -5 11 -4 6 3 -5 8 -13 9 -24 3 -20 -11 -56 5 -47 20
3 5 -1 6 -10 3 -14 -6 -12 -9 9 -23 21 -14 23 -20 13 -30 -6 -8 0 -6 16 4 15
9 27 13 27 7 0 -12 -78 -64 -88 -58 -4 2 -16 -2 -27 -10 -10 -8 -14 -14 -9
-14 6 0 14 3 20 8 5 4 -2 -3 -16 -15 -14 -13 -32 -23 -40 -23 -13 0 -13 1 0
10 17 11 10 13 -14 4 -8 -3 -12 -12 -9 -21 4 -11 2 -14 -5 -9 -7 4 -15 1 -18
-7 -6 -15 -49 -16 -62 -2 -4 5 1 5 10 2 10 -3 20 -2 23 3 4 6 -3 10 -14 10
-21 0 -37 17 -26 28 3 3 9 1 13 -5 9 -15 62 -25 62 -12 0 5 -7 9 -15 9 -20 0
-19 19 0 27 22 8 51 66 36 71 -6 2 -11 10 -11 17 0 15 -52 30 -94 26 -17 -2
-26 1 -22 8 4 6 -3 8 -19 5 -19 -3 -23 -1 -18 11 3 9 11 14 18 11 7 -2 15 4
18 15 5 20 -7 26 -18 9 -4 -6 -11 -7 -17 -4 -6 4 -8 2 -4 -4 3 -6 -1 -17 -9
-25 -20 -21 -19 -25 8 -23 12 1 25 -3 29 -8 4 -6 25 -9 46 -7 36 2 40 0 47
-26 4 -15 10 -22 12 -15 6 16 23 15 23 -2 0 -19 -32 -30 -41 -14 -19 32 -38
52 -44 46 -4 -3 1 -18 10 -32 10 -14 14 -26 9 -26 -4 0 1 -6 12 -14 10 -8 16
-17 12 -21 -4 -4 -24 6 -45 21 l-38 29 18 -27 c10 -16 14 -28 9 -28 -5 0 -15
11 -22 25 -9 17 -22 25 -39 25 -21 0 -23 -2 -11 -10 13 -8 12 -10 -2 -10 -10
0 -18 -5 -18 -11 0 -8 -5 -8 -15 1 -13 11 -13 14 2 26 17 13 17 14 -2 7 -11
-4 -29 -17 -41 -30 -12 -13 -25 -20 -28 -14 -3 5 0 11 6 14 9 3 7 10 -7 21
-20 17 -20 17 0 7 14 -6 26 -5 38 4 17 13 24 31 8 20 -18 -10 -21 13 -4 26 12
10 14 10 9 2 -8 -15 3 -17 22 -4 11 6 10 10 -4 15 -22 9 -51 -1 -58 -20 -3 -8
-10 -12 -16 -9 -6 3 -13 -1 -16 -9 -3 -9 -11 -13 -18 -9 -6 3 -6 1 2 -8 6 -7
12 -17 12 -21 0 -12 -28 -10 -36 4 -5 7 -3 8 6 3 9 -6 11 -4 5 5 -6 10 -11 10
-20 -3 -7 -10 -20 -17 -29 -17 -9 0 -19 -7 -22 -15 -4 -8 -9 -13 -13 -10 -10
6 -8 -77 2 -92 5 -8 3 -13 -7 -13 -8 0 -17 -6 -20 -12 -3 -7 -3 -2 1 12 5 22
4 23 -10 11 -9 -7 -14 -17 -11 -22 11 -18 -9 -8 -26 14 -10 12 -22 18 -26 14
-5 -4 -2 -12 6 -17 10 -6 6 -8 -15 -5 -17 2 -34 4 -38 4 -5 1 -1 9 9 18 11 11
13 18 5 21 -6 2 -11 13 -11 23 0 11 -4 18 -9 14 -5 -3 -13 0 -17 6 -5 8 -3 9
6 4 8 -5 11 -3 8 6 -3 8 -10 13 -16 12 -7 -2 -9 4 -5 13 5 15 -2 16 -55 12
-48 -3 -62 -1 -62 9 0 8 -5 11 -11 8 -21 -14 21 -44 55 -39 25 3 27 3 11 -5
-11 -5 -34 -10 -50 -10 -17 -1 -36 -6 -43 -13 -6 -6 -14 -9 -17 -6 -3 3 1 13
10 22 9 9 12 16 7 16 -18 0 -82 -69 -81 -87 0 -16 2 -15 9 2 8 19 9 19 9 -2 1
-12 -3 -24 -8 -28 -12 -7 -33 29 -24 39 3 3 2 6 -4 6 -15 0 -84 120 -77 132 4
6 2 8 -4 4 -20 -12 -24 15 -5 37 l18 22 -22 -18 c-15 -13 -23 -15 -28 -7 -4 7
-3 15 2 19 5 3 60 41 122 85 88 61 115 75 122 65 5 -8 48 -83 95 -166 48 -84
90 -153 94 -153 5 0 154 95 332 212 177 116 331 212 340 213 10 1 21 5 25 10
5 4 2 5 -6 0 -11 -6 -13 -3 -9 13 4 14 1 25 -8 30 -12 7 -74 96 -74 106 0 2
90 -19 200 -47 132 -34 200 -56 200 -65z m1127 41 c-3 -10 -5 -2 -5 17 0 19 2
27 5 18 2 -10 2 -26 0 -35z m330 15 c-3 -8 -6 -5 -6 6 -1 11 2 17 5 13 3 -3 4
-12 1 -19z m-4063 -28 c-5 -5 -10 3 -11 18 -1 22 0 24 9 8 6 -10 6 -22 2 -26z
m3537 -17 c-12 -20 -14 -14 -5 12 4 9 9 14 11 11 3 -2 0 -13 -6 -23z m516 -5
c-3 -8 -6 -5 -6 6 -1 11 2 17 5 13 3 -3 4 -12 1 -19z m-306 -25 c-4 -28 -6
-32 -9 -15 -3 22 3 52 11 52 1 0 1 -17 -2 -37z m296 -15 c-3 -8 -6 -5 -6 6 -1
11 2 17 5 13 3 -3 4 -12 1 -19z m233 -57 c17 -6 19 -10 8 -10 -9 -1 -27 9 -40
22 -13 12 -17 17 -8 10 8 -7 27 -16 40 -22z m-516 -6 c-4 -8 -8 -15 -10 -15
-2 0 -4 7 -4 15 0 8 4 15 10 15 5 0 7 -7 4 -15z m983 -7 c-3 -8 -6 -5 -6 6 -1
11 2 17 5 13 3 -3 4 -12 1 -19z m-357 2 c-8 -5 -19 -10 -25 -10 -5 0 -3 5 5
10 8 5 20 10 25 10 6 0 3 -5 -5 -10z m-47 -7 c-7 -2 -19 -2 -25 0 -7 3 -2 5
12 5 14 0 19 -2 13 -5z m394 -45 c-3 -8 -6 -5 -6 6 -1 11 2 17 5 13 3 -3 4
-12 1 -19z m-1406 -56 c-5 -10 -12 -34 -15 -56 -6 -29 -10 -36 -19 -27 -9 9
-9 16 1 31 18 30 14 36 -8 12 -11 -12 -19 -25 -18 -29 0 -4 -4 -21 -10 -36 -7
-16 -12 -36 -12 -44 0 -9 -3 -14 -6 -10 -3 3 4 48 16 101 l21 95 30 -11 c22
-8 27 -14 20 -26z m1396 16 c-3 -8 -6 -5 -6 6 -1 11 2 17 5 13 3 -3 4 -12 1
-19z m-1070 -82 c65 -18 243 -69 395 -112 153 -43 276 -80 273 -82 -2 -2 -93
21 -202 51 -295 84 -466 130 -483 132 -9 0 -20 4 -25 7 -6 3 -27 9 -47 13 -30
6 -37 4 -41 -12 -3 -12 -5 -9 -6 10 0 15 3 27 8 27 5 0 62 -15 128 -34z m-132
-76 c0 -27 -3 -50 -6 -50 -4 0 -12 -19 -18 -42 -15 -58 -35 -86 -27 -38 14 81
39 180 45 180 4 0 7 -22 6 -50z m31 25 c-1 -13 -5 -28 -10 -32 -5 -6 -3 35 3
55 4 11 8 -3 7 -23z m1115 -12 c-19 -36 -81 -91 -128 -114 -37 -18 -67 -24
-128 -25 l-80 -2 80 7 c96 8 168 43 224 108 40 46 47 52 32 26z m-4413 -68 c6
-14 10 -25 9 -25 -2 0 -13 11 -25 25 -15 17 -17 25 -9 25 8 0 19 -11 25 -25z
m1538 -18 c3 -3 1 -8 -5 -12 -6 -3 -11 -1 -11 4 0 6 -5 11 -11 11 -5 0 -7 -4
-4 -10 3 -5 -1 -10 -9 -10 -9 0 -16 -5 -16 -11 0 -5 5 -7 10 -4 6 3 10 1 10
-4 0 -13 -10 -14 -28 -2 -10 6 -10 10 2 21 9 7 14 16 11 20 -5 9 42 6 51 -3z
m106 -30 c-7 -8 -9 -17 -5 -20 3 -4 2 -7 -3 -7 -12 0 -34 21 -34 32 0 4 6 5
14 2 8 -3 17 0 21 6 4 6 9 9 12 6 3 -3 1 -12 -5 -19z m-52 3 c0 -5 -4 -10 -9
-10 -6 0 -13 5 -16 10 -3 6 1 10 9 10 9 0 16 -4 16 -10z m170 -6 c0 -8 -5 -12
-10 -9 -6 4 -8 11 -5 16 9 14 15 11 15 -7z m-214 -16 c-1 -21 -26 -40 -26 -19
0 6 5 11 10 11 6 0 9 3 9 8 -2 11 0 22 5 22 2 0 3 -10 2 -22z m234 -3 c0 -11
-42 -25 -53 -18 -8 5 -2 10 18 14 17 4 31 7 33 8 1 0 2 -1 2 -4z m-670 -9 c0
-3 -4 -8 -10 -11 -5 -3 -10 -1 -10 4 0 6 5 11 10 11 6 0 10 -2 10 -4z m480 0
c0 -3 -4 -8 -10 -11 -5 -3 -10 -1 -10 4 0 6 5 11 10 11 6 0 10 -2 10 -4z m80
-16 c0 -5 -4 -10 -10 -10 -5 0 -10 5 -10 10 0 6 5 10 10 10 6 0 10 -4 10 -10z
m25 0 c3 -5 1 -10 -4 -10 -6 0 -11 5 -11 10 0 6 2 10 4 10 3 0 8 -4 11 -10z
m-565 -10 c0 -5 -5 -10 -11 -10 -5 0 -7 5 -4 10 3 6 8 10 11 10 2 0 4 -4 4
-10z m630 0 c0 -5 -5 -10 -11 -10 -5 0 -7 5 -4 10 3 6 8 10 11 10 2 0 4 -4 4
-10z m50 -5 c-1 -5 -8 -9 -17 -7 -10 2 -12 -1 -7 -9 4 -8 3 -10 -4 -5 -15 9
-3 38 15 34 8 -2 14 -7 13 -13z m-115 -54 c-1 -8 -7 -16 -14 -17 -7 -2 -7 0
-1 3 7 3 8 9 1 17 -8 9 -7 13 3 13 8 0 13 -7 11 -16z m-72 -8 c-7 -2 -19 -2
-25 0 -7 3 -2 5 12 5 14 0 19 -2 13 -5z m37 -23 c0 -5 -4 -10 -10 -10 -5 0
-10 5 -10 10 0 6 5 10 10 10 6 0 10 -4 10 -10z m-1500 -36 c0 -8 7 -14 15 -14
8 0 15 -4 15 -10 0 -19 -19 -10 -39 19 -25 34 -27 49 -6 31 8 -7 15 -19 15
-26z m1404 5 c17 15 51 7 41 -9 -3 -5 -11 -10 -16 -10 -6 0 -7 4 -4 10 3 6 -1
7 -10 3 -13 -4 -14 -8 -4 -13 9 -6 9 -12 -4 -24 -10 -10 -18 -12 -22 -6 -10
17 -25 11 -18 -7 6 -15 5 -16 -9 -3 -21 20 -12 33 18 26 14 -4 24 -2 24 4 0 5
-4 10 -9 10 -14 0 -41 29 -41 43 0 7 9 1 19 -13 16 -20 21 -22 35 -11z m-1034
-19 c0 -5 -2 -10 -4 -10 -3 0 -8 5 -11 10 -3 6 -1 10 4 10 6 0 11 -4 11 -10z
m637 -62 c-3 -8 -6 -5 -6 6 -1 11 2 17 5 13 3 -3 4 -12 1 -19z m74 -89 c2 6
10 1 18 -11 12 -20 12 -21 0 -12 -8 6 -22 10 -32 8 -11 -1 -16 0 -13 3 3 4 0
13 -6 22 -9 11 -6 10 9 -2 12 -11 22 -14 24 -8z m76 -32 c0 -7 -9 -13 -19 -13
-18 0 -18 1 -2 13 10 7 18 13 19 13 1 0 2 -6 2 -13z m-67 -9 c0 -4 -4 -8 -9
-8 -6 0 -12 4 -15 8 -3 5 1 9 9 9 8 0 15 -4 15 -9z"/>
<path d="M4011 6521 c-15 -28 -71 -231 -71 -258 0 -18 9 -28 35 -39 50 -21 71
-6 91 64 9 31 24 87 35 123 24 83 24 106 0 119 -32 17 -79 12 -90 -9z"/>
<path d="M3932 5495 c-51 -104 -92 -193 -92 -196 0 -7 160 -53 165 -47 6 6 27
373 24 403 -3 25 -19 -1 -97 -160z"/>
<path d="M5425 5193 c-20 -87 -38 -164 -40 -170 -4 -12 39 -28 127 -48 44 -11
63 19 92 146 15 63 29 121 32 130 8 27 -28 59 -81 73 -27 7 -60 16 -71 20 -21
6 -24 -1 -59 -151z"/>
<path d="M6344 5100 c-41 -13 -114 -78 -141 -127 l-23 -40 86 -112 c47 -61 89
-111 93 -111 5 0 61 25 126 55 l118 56 -6 64 c-7 69 -31 127 -69 161 -52 48
-129 70 -184 54z"/>
<path d="M6149 4818 c-17 -59 -17 -319 0 -302 2 2 16 -14 31 -34 50 -70 116
-97 193 -80 88 18 155 108 198 263 12 44 23 81 24 83 2 2 14 -1 27 -8 22 -11
22 -10 3 4 -11 8 -28 23 -37 32 -12 11 -18 13 -18 5 0 -7 -5 -9 -12 -5 -6 4
-8 3 -5 -2 10 -18 -7 -31 -100 -77 l-91 -46 -12 -58 c-15 -80 -26 -104 -45
-97 -19 8 -19 13 1 100 l17 71 -26 35 c-15 19 -25 38 -22 41 3 4 2 5 -1 3 -11
-8 -56 53 -48 65 4 8 3 9 -4 5 -6 -4 -19 5 -28 19 -23 35 -31 32 -45 -17z"/>
<path d="M6651 4684 c0 -11 3 -14 6 -6 3 7 2 16 -1 19 -3 4 -6 -2 -5 -13z"/>
<path d="M6617 4651 c-4 -17 -3 -21 5 -13 5 5 8 16 6 23 -3 8 -7 3 -11 -10z"/>
<path d="M6636 4635 c-9 -26 -7 -32 5 -12 6 10 9 21 6 23 -2 3 -7 -2 -11 -11z"/>
<path d="M6545 4500 c-4 -6 -11 -7 -17 -4 -7 4 -8 2 -4 -5 4 -6 12 -9 17 -6 5
4 9 1 9 -5 0 -6 -10 -10 -22 -8 -21 3 -61 -31 -58 -48 1 -4 -4 -11 -12 -16
-15 -11 -6 -8 44 15 41 19 50 29 54 64 2 25 -1 29 -11 13z m-15 -51 c0 -5 -5
-7 -10 -4 -6 4 -19 1 -28 -7 -15 -12 -16 -11 -3 5 15 19 41 23 41 6z"/>
<path d="M6224 4392 c15 -17 56 -20 56 -5 0 3 -9 3 -20 0 -11 -3 -20 -2 -20 3
0 4 -8 11 -17 14 -15 6 -15 5 1 -12z"/>
<path d="M6410 4379 c0 -5 5 -7 10 -4 6 3 10 8 10 11 0 2 -4 4 -10 4 -5 0 -10
-5 -10 -11z"/>
<path d="M6271 4366 c-22 -12 -18 -13 41 -11 52 1 65 -1 61 -12 -3 -7 0 -13 6
-13 6 0 11 11 11 25 0 23 -3 25 -47 25 -27 -1 -59 -7 -72 -14z"/>
<path d="M6405 4350 c-3 -5 -2 -10 4 -10 5 0 13 5 16 10 3 6 2 10 -4 10 -5 0
-13 -4 -16 -10z"/>
<path d="M6410 4320 c0 -5 -6 -7 -14 -4 -8 3 -17 0 -22 -7 -5 -9 -2 -10 9 -6
10 4 17 2 17 -5 0 -7 5 -6 15 2 18 15 20 -1 3 -18 -6 -6 -9 -15 -5 -18 3 -4
12 5 18 20 7 14 16 26 21 26 5 0 6 5 3 10 -8 13 -45 13 -45 0z"/>
<path d="M6215 4300 c3 -5 8 -10 11 -10 2 0 4 5 4 10 0 6 -5 10 -11 10 -5 0
-7 -4 -4 -10z"/>
<path d="M6385 4270 c3 -5 8 -10 11 -10 2 0 4 5 4 10 0 6 -5 10 -11 10 -5 0
-7 -4 -4 -10z"/>
<path d="M7000 4806 c0 -2 7 -7 16 -10 8 -3 12 -2 9 4 -6 10 -25 14 -25 6z"/>
<path d="M6970 4759 c0 -5 5 -7 10 -4 6 3 10 8 10 11 0 2 -4 4 -10 4 -5 0 -10
-5 -10 -11z"/>
<path d="M6715 4419 c-11 -16 -1 -19 13 -3 7 8 8 14 3 14 -5 0 -13 -5 -16 -11z"/>
<path d="M3500 4350 c0 -11 4 -20 9 -20 5 0 7 9 4 20 -3 11 -7 20 -9 20 -2 0
-4 -9 -4 -20z"/>
<path d="M3770 3894 c0 -8 5 -12 10 -9 6 4 8 11 5 16 -9 14 -15 11 -15 -7z"/>
<path d="M3960 3610 c23 -32 54 -53 63 -43 9 8 -33 64 -43 58 -5 -3 -11 -1
-15 5 -3 5 -11 10 -16 10 -6 0 -1 -14 11 -30z"/>
<path d="M4108 3454 c-4 -4 4 -21 19 -38 26 -31 43 -39 43 -21 0 6 -4 10 -8
10 -11 0 -38 27 -43 43 -2 7 -8 10 -11 6z"/>
<path d="M4260 3306 c0 -2 8 -10 18 -17 15 -13 16 -12 3 4 -13 16 -21 21 -21
13z"/>
<path d="M4425 3140 c10 -11 20 -20 23 -20 3 0 -3 9 -13 20 -10 11 -20 20 -23
20 -3 0 3 -9 13 -20z"/>
<path d="M4500 3075 c13 -14 26 -25 28 -25 3 0 -5 11 -18 25 -13 14 -26 25
-28 25 -3 0 5 -11 18 -25z"/>
<path d="M4680 2926 c0 -2 8 -10 18 -17 15 -13 16 -12 3 4 -13 16 -21 21 -21
13z"/>
<path d="M5728 4173 c7 -3 16 -2 19 1 4 3 -2 6 -13 5 -11 0 -14 -3 -6 -6z"/>
<path d="M5796 4141 c21 -21 27 -23 35 -11 12 20 11 30 -3 31 -7 0 -23 2 -35
3 -22 3 -22 2 3 -23z"/>
<path d="M5650 4059 c0 -5 5 -7 10 -4 6 3 10 8 10 11 0 2 -4 4 -10 4 -5 0 -10
-5 -10 -11z"/>
<path d="M5658 4033 c7 -3 16 -2 19 1 4 3 -2 6 -13 5 -11 0 -14 -3 -6 -6z"/>
<path d="M5450 4021 c0 -6 4 -13 10 -16 6 -3 7 1 4 9 -7 18 -14 21 -14 7z"/>
<path d="M5504 4022 c3 -5 0 -13 -6 -15 -9 -4 -10 -6 -1 -6 17 -1 25 16 12 25
-7 4 -9 3 -5 -4z"/>
<path d="M5384 3985 c-14 -14 -27 -25 -30 -25 -3 0 -19 -9 -35 -21 -29 -21
-38 -39 -18 -39 5 0 7 5 4 10 -5 8 42 35 53 30 2 0 12 9 22 22 11 13 19 18 20
11 0 -6 -6 -13 -12 -16 -7 -2 -9 -8 -5 -13 9 -10 46 33 47 54 0 19 -19 14 -46
-13z"/>
<path d="M5456 3981 c-4 -7 -5 -15 -2 -18 9 -9 19 4 14 18 -4 11 -6 11 -12 0z"/>
<path d="M5650 3979 c0 -5 5 -7 10 -4 6 3 10 8 10 11 0 2 -4 4 -10 4 -5 0 -10
-5 -10 -11z"/>
<path d="M5791 3964 c0 -11 3 -14 6 -6 3 7 2 16 -1 19 -3 4 -6 -2 -5 -13z"/>
<path d="M5550 3960 c0 -5 7 -7 15 -4 8 4 15 8 15 10 0 2 -7 4 -15 4 -8 0 -15
-4 -15 -10z"/>
<path d="M5485 3951 c-3 -5 -1 -12 5 -16 5 -3 10 1 10 9 0 18 -6 21 -15 7z"/>
<path d="M5600 3949 c0 -5 5 -7 10 -4 6 3 10 8 10 11 0 2 -4 4 -10 4 -5 0 -10
-5 -10 -11z"/>
<path d="M5420 3948 c0 -4 5 -19 12 -33 10 -22 9 -28 -2 -35 -8 -5 -12 -11
-10 -14 3 -2 13 2 24 9 18 14 18 15 -3 47 -11 18 -21 30 -21 26z"/>
<path d="M5760 3925 c0 -8 4 -15 10 -15 5 0 7 7 4 15 -4 8 -8 15 -10 15 -2 0
-4 -7 -4 -15z"/>
<path d="M5395 3910 c5 -15 0 -22 -19 -30 -14 -5 -26 -14 -26 -19 0 -6 7 -8
15 -5 8 4 15 1 15 -5 0 -6 12 -10 28 -10 20 1 22 2 7 6 -30 7 -41 21 -22 29
18 7 24 54 6 54 -6 0 -8 -9 -4 -20z"/>
<path d="M5625 3920 c-3 -5 -2 -10 4 -10 5 0 13 5 16 10 3 6 2 10 -4 10 -5 0
-13 -4 -16 -10z"/>
<path d="M5325 3901 c-6 -11 9 -23 19 -14 9 9 7 23 -3 23 -6 0 -12 -4 -16 -9z"/>
<path d="M4533 3888 c-13 -6 -23 -15 -23 -20 0 -5 -4 -7 -8 -4 -5 3 -9 -1 -9
-9 0 -8 5 -11 11 -7 6 4 20 7 31 7 14 0 20 7 21 23 1 12 1 22 0 21 0 0 -11 -5
-23 -11z"/>
<path d="M5640 3890 c0 -5 5 -10 10 -10 6 0 10 5 10 10 0 6 -4 10 -10 10 -5 0
-10 -4 -10 -10z"/>
<path d="M5757 3880 c3 -11 7 -20 9 -20 2 0 4 9 4 20 0 11 -4 20 -9 20 -5 0
-7 -9 -4 -20z"/>
<path d="M5781 3874 c0 -11 3 -14 6 -6 3 7 2 16 -1 19 -3 4 -6 -2 -5 -13z"/>
<path d="M4722 3860 c-10 -16 -9 -18 4 -13 13 5 15 1 10 -18 -6 -19 -5 -21 4
-7 5 9 7 25 2 37 -7 20 -8 20 -20 1z"/>
<path d="M5187 3866 c-11 -8 -14 -17 -8 -20 5 -4 15 3 21 14 13 23 11 24 -13
6z"/>
<path d="M5290 3870 c0 -5 5 -10 10 -10 6 0 10 5 10 10 0 6 -4 10 -10 10 -5 0
-10 -4 -10 -10z"/>
<path d="M5450 3840 c-8 -5 -12 -12 -9 -15 4 -3 12 1 19 10 14 17 11 19 -10 5z"/>
<path d="M4680 3820 c0 -5 5 -10 10 -10 6 0 10 5 10 10 0 6 -4 10 -10 10 -5 0
-10 -4 -10 -10z"/>
<path d="M5410 3820 c0 -5 5 -10 10 -10 6 0 10 5 10 10 0 6 -4 10 -10 10 -5 0
-10 -4 -10 -10z"/>
<path d="M4610 3810 c-12 -8 -10 -10 8 -10 13 0 20 4 17 10 -7 12 -6 12 -25 0z"/>
<path d="M4755 3811 c-3 -5 -2 -12 3 -15 5 -3 9 1 9 9 0 17 -3 19 -12 6z"/>
<path d="M5215 3809 c-10 -15 1 -22 24 -14 12 3 19 11 16 16 -8 12 -32 11 -40
-2z"/>
<path d="M5281 3799 c0 -9 6 -22 14 -29 10 -9 15 -9 15 -1 0 6 -4 11 -9 11 -5
0 -12 8 -14 18 -4 14 -5 14 -6 1z"/>
<path d="M5430 3790 c0 -5 6 -10 14 -10 8 0 18 5 21 10 3 6 -3 10 -14 10 -12
0 -21 -4 -21 -10z"/>
<path d="M4637 3776 c-4 -10 0 -12 14 -9 10 3 16 9 13 14 -8 13 -21 11 -27 -5z"/>
<path d="M5407 3754 c-4 -4 -7 -12 -7 -18 0 -6 5 -4 10 4 9 13 11 13 21 0 9
-12 10 -12 7 -1 -5 17 -21 25 -31 15z"/>
<path d="M4581 3714 c0 -11 3 -14 6 -6 3 7 2 16 -1 19 -3 4 -6 -2 -5 -13z"/>
<path d="M5378 3713 c7 -3 16 -2 19 1 4 3 -2 6 -13 5 -11 0 -14 -3 -6 -6z"/>
<path d="M4943 3695 c0 -8 4 -12 9 -9 5 3 6 10 3 15 -9 13 -12 11 -12 -6z"/>
<path d="M4890 3659 c0 -5 5 -7 10 -4 6 3 10 8 10 11 0 2 -4 4 -10 4 -5 0 -10
-5 -10 -11z"/>
<path d="M5338 7603 c7 -3 16 -2 19 1 4 3 -2 6 -13 5 -11 0 -14 -3 -6 -6z"/>
<path d="M3888 7593 c7 -3 16 -2 19 1 4 3 -2 6 -13 5 -11 0 -14 -3 -6 -6z"/>
<path d="M5388 7593 c7 -3 16 -2 19 1 4 3 -2 6 -13 5 -11 0 -14 -3 -6 -6z"/>
<path d="M3848 7583 c7 -3 16 -2 19 1 4 3 -2 6 -13 5 -11 0 -14 -3 -6 -6z"/>
<path d="M5428 7583 c7 -3 16 -2 19 1 4 3 -2 6 -13 5 -11 0 -14 -3 -6 -6z"/>
<path d="M3808 7573 c7 -3 16 -2 19 1 4 3 -2 6 -13 5 -11 0 -14 -3 -6 -6z"/>
<path d="M5468 7573 c7 -3 16 -2 19 1 4 3 -2 6 -13 5 -11 0 -14 -3 -6 -6z"/>
<path d="M3745 7560 c-13 -5 -14 -9 -5 -9 8 0 24 4 35 9 13 5 14 9 5 9 -8 0
-24 -4 -35 -9z"/>
<path d="M5508 7563 c7 -3 16 -2 19 1 4 3 -2 6 -13 5 -11 0 -14 -3 -6 -6z"/>
<path d="M5578 7543 c7 -3 16 -2 19 1 4 3 -2 6 -13 5 -11 0 -14 -3 -6 -6z"/>
<path d="M3590 7510 c-8 -5 -10 -10 -5 -10 6 0 17 5 25 10 8 5 11 10 5 10 -5
0 -17 -5 -25 -10z"/>
<path d="M3500 7472 c-25 -21 -44 -83 -195 -644 -89 -331 -101 -368 -119 -369
-16 0 -13 -3 8 -10 17 -4 31 -7 32 -6 1 1 34 119 72 262 174 653 206 764 227
774 11 5 15 10 9 10 -7 1 -22 -7 -34 -17z"/>
<path d="M5800 7470 c8 -5 20 -10 25 -10 6 0 3 5 -5 10 -8 5 -19 10 -25 10 -5
0 -3 -5 5 -10z"/>
<path d="M5950 7410 c8 -5 20 -10 25 -10 6 0 3 5 -5 10 -8 5 -19 10 -25 10 -5
0 -3 -5 5 -10z"/>
<path d="M6050 7365 c25 -13 50 -24 55 -24 6 0 -10 11 -35 24 -25 13 -49 24
-55 24 -5 0 10 -11 35 -24z"/>
<path d="M6120 7335 c0 -2 32 -21 70 -40 39 -19 70 -33 70 -30 0 2 -31 21 -70
40 -38 19 -70 33 -70 30z"/>
<path d="M6270 7256 c0 -2 28 -20 63 -40 34 -19 77 -45 95 -57 17 -11 32 -19
32 -16 0 6 -110 76 -157 101 -18 9 -33 15 -33 12z"/>
<path d="M2528 6623 c12 -2 30 -2 40 0 9 3 -1 5 -23 4 -22 0 -30 -2 -17 -4z"/>
<path d="M2665 6599 c108 -29 128 -31 45 -4 -41 14 -84 25 -95 24 -11 0 12 -9
50 -20z"/>
<path d="M2805 6560 c11 -5 27 -9 35 -9 9 0 8 4 -5 9 -11 5 -27 9 -35 9 -9 0
-8 -4 5 -9z"/>
<path d="M2898 6533 c7 -3 16 -2 19 1 4 3 -2 6 -13 5 -11 0 -14 -3 -6 -6z"/>
<path d="M2960 6515 c19 -7 42 -13 50 -13 8 0 -1 6 -20 13 -19 7 -42 13 -50
13 -8 0 1 -6 20 -13z"/>
<path d="M3045 6490 c11 -5 27 -9 35 -9 9 0 8 4 -5 9 -11 5 -27 9 -35 9 -9 0
-8 -4 5 -9z"/>
<path d="M3138 6463 c7 -3 16 -2 19 1 4 3 -2 6 -13 5 -11 0 -14 -3 -6 -6z"/>
<path d="M7147 5361 c-4 -17 -3 -21 5 -13 5 5 8 16 6 23 -3 8 -7 3 -11 -10z"/>
<path d="M2087 5214 c3 -8 9 -14 14 -14 4 0 7 -6 5 -12 -1 -7 -1 -10 1 -6 2 4
10 5 18 2 7 -3 16 0 20 6 3 6 3 10 -2 9 -20 -3 -33 2 -30 12 1 6 -6 13 -15 14
-11 2 -15 -2 -11 -11z"/>
<path d="M2150 5170 c-11 -7 -9 -11 13 -19 43 -17 53 -13 27 9 -13 11 -23 20
-24 20 -1 0 -8 -4 -16 -10z"/>
<path d="M7578 5164 c-10 -10 14 -30 37 -31 11 0 48 -7 82 -16 35 -8 65 -12
68 -7 6 9 -75 31 -87 24 -4 -3 -8 0 -8 6 0 7 -7 10 -15 6 -8 -3 -15 -2 -15 3
0 5 -9 11 -20 14 -11 3 -18 1 -14 -4 3 -5 1 -9 -5 -9 -5 0 -11 5 -13 11 -2 5
-6 7 -10 3z"/>
<path d="M7780 5100 c-8 -5 -10 -10 -5 -10 6 0 17 5 25 10 8 5 11 10 5 10 -5
0 -17 -5 -25 -10z"/>
<path d="M7812 5091 c-10 -6 -8 -10 10 -14 35 -10 58 -8 58 4 0 6 -7 9 -15 6
-8 -4 -17 -2 -20 3 -7 12 -16 12 -33 1z"/>
<path d="M2557 5036 c-4 -10 -1 -13 9 -9 7 3 14 9 14 14 0 14 -17 10 -23 -5z"/>
<path d="M3233 4261 c0 -11 5 -18 9 -15 4 3 5 11 1 19 -7 21 -12 19 -10 -4z"/>
<path d="M3320 4040 c0 -5 5 -10 11 -10 5 0 7 5 4 10 -3 6 -8 10 -11 10 -2 0
-4 -4 -4 -10z"/>
<path d="M3620 3600 c0 -5 5 -10 10 -10 6 0 10 5 10 10 0 6 -4 10 -10 10 -5 0
-10 -4 -10 -10z"/>
</g>
</svg>
