<?xml version="1.0" standalone="no"?>
<!DOCTYPE svg PUBLIC "-//W3C//DTD SVG 20010904//EN"
 "http://www.w3.org/TR/2001/REC-SVG-20010904/DTD/svg10.dtd">
<svg version="1.0" xmlns="http://www.w3.org/2000/svg"
 width="1024.000000pt" height="1024.000000pt" viewBox="0 0 1024.000000 1024.000000"
 preserveAspectRatio="xMidYMid meet">

<g transform="translate(0.000000,1024.000000) scale(0.100000,-0.100000)"
fill="#000000" stroke="none">
<path d="M7574 7150 c-23 -5 -185 -65 -361 -134 -175 -68 -481 -188 -678 -265
-198 -77 -504 -196 -680 -266 -1148 -452 -1719 -675 -1730 -675 -6 0 -32 55
-59 123 -98 242 -135 294 -254 350 -55 26 -79 31 -137 31 -66 0 -86 -6 -365
-119 -162 -66 -396 -160 -519 -210 -123 -49 -228 -97 -234 -106 -7 -12 6 -56
53 -175 167 -425 170 -434 152 -443 -9 -4 -179 -72 -377 -151 l-360 -144 -70
-70 c-107 -108 -155 -221 -155 -367 0 -41 7 -99 16 -129 19 -63 286 -734 315
-791 71 -141 252 -243 429 -243 l85 0 325 131 c883 358 1594 643 1596 640 2
-2 -6 -32 -17 -67 -24 -77 -20 -146 13 -217 38 -81 72 -105 240 -171 158 -63
685 -267 912 -353 144 -55 202 -62 264 -30 84 43 90 56 285 545 l183 461 44
16 c62 23 116 72 147 132 21 42 27 66 27 122 0 63 -6 84 -62 218 -61 146 -61
148 -39 157 157 62 1094 437 1322 530 171 69 323 137 354 158 135 92 215 286
182 441 -13 60 -143 379 -177 432 -13 20 -37 47 -54 59 -30 21 -31 26 -26 65
8 48 -15 118 -78 243 -62 123 -151 203 -279 250 -66 25 -173 35 -233 22z m269
-52 c106 -51 179 -125 234 -238 60 -125 74 -174 68 -228 -6 -45 -5 -48 29 -71
20 -13 45 -38 55 -55 32 -51 158 -370 171 -429 14 -71 -1 -171 -40 -255 -32
-69 -133 -177 -157 -168 -8 3 -12 2 -9 -3 3 -5 -20 -20 -52 -34 -77 -35 -754
-307 -1439 -579 -101 -40 -183 -78 -183 -84 0 -5 28 -77 62 -160 52 -128 61
-158 62 -214 1 -54 -4 -74 -29 -118 -32 -59 -92 -109 -141 -118 -30 -5 -35
-13 -65 -87 -18 -45 -46 -111 -62 -147 -17 -36 -30 -68 -29 -71 3 -13 -118
-304 -127 -307 -6 -2 -7 -10 -4 -19 4 -11 2 -14 -5 -9 -8 5 -12 -2 -12 -19 0
-16 -4 -24 -10 -20 -6 4 -8 16 -5 28 3 12 -6 0 -19 -28 -29 -57 -30 -59 -16
-50 6 3 10 1 10 -5 0 -6 6 -8 13 -4 6 4 5 -1 -4 -12 -9 -10 -19 -26 -22 -34
-3 -9 -6 -6 -7 10 -1 23 -2 23 -10 5 -4 -11 -4 -24 1 -30 14 -14 11 -36 -15
-90 -23 -51 -70 -105 -89 -105 -6 0 -2 6 9 14 10 8 16 18 11 22 -4 4 -7 2 -7
-4 0 -7 -9 -12 -21 -12 -12 0 -17 -4 -13 -11 4 -8 0 -8 -15 0 -17 10 -20 9
-15 -4 4 -8 10 -15 15 -15 6 0 4 -6 -3 -14 -7 -7 -18 -12 -24 -9 -7 2 -15 0
-19 -6 -11 -19 -53 -12 -150 25 -82 32 -93 39 -83 52 11 13 10 14 -9 4 -25
-14 -36 -15 -30 -4 3 4 -5 8 -17 8 -12 1 -105 34 -206 74 -436 169 -540 210
-632 244 -121 46 -155 69 -192 130 -44 70 -47 151 -12 252 15 42 26 79 24 84
-2 5 -255 -92 -563 -216 -308 -124 -594 -238 -635 -254 -41 -15 -149 -58 -238
-94 -90 -36 -169 -63 -174 -59 -7 3 -8 1 -4 -5 5 -8 -3 -10 -26 -7 -24 4 -27
3 -14 -3 19 -8 19 -9 -2 -14 -13 -4 -22 -2 -22 5 0 6 -6 2 -14 -8 -12 -17 -16
-17 -30 -6 -9 8 -19 11 -23 7 -3 -3 0 -6 8 -6 8 -1 3 -7 -11 -15 -14 -8 -20
-15 -15 -15 6 0 -26 -15 -70 -34 -72 -30 -82 -32 -97 -18 -12 10 -18 11 -18 4
0 -7 -10 -12 -22 -12 -20 0 -20 1 -5 13 16 11 15 12 -7 13 -19 1 -23 -2 -18
-15 3 -9 10 -19 15 -22 5 -4 5 -9 0 -12 -4 -3 -17 1 -28 9 -10 8 -13 14 -7 14
7 0 12 5 12 10 0 6 -21 10 -46 10 -34 0 -45 -3 -41 -13 10 -28 -8 -38 -49 -28
-21 5 -32 9 -24 10 10 1 8 6 -8 17 -12 8 -27 12 -34 8 -7 -4 -8 -3 -4 4 5 8 2
10 -8 6 -9 -3 -13 -10 -10 -16 3 -5 -8 -2 -25 7 -18 9 -36 27 -41 41 -13 34
-13 47 2 38 7 -4 8 -3 4 5 -4 6 -12 9 -17 6 -5 -4 -9 -1 -9 6 0 8 -5 7 -18 -2
-15 -13 -16 -12 -3 4 12 16 9 22 -12 18 -5 -1 -6 3 -3 8 3 5 -1 14 -8 20 -17
14 -31 -2 -20 -21 6 -10 5 -10 -8 -1 -8 7 -17 10 -20 7 -18 -18 -123 211 -111
243 3 10 2 15 -2 10 -5 -4 -15 7 -23 25 -64 150 -102 253 -98 265 3 8 2 12 -3
9 -5 -3 -19 20 -31 52 -12 31 -35 89 -50 127 -46 112 -53 144 -53 230 0 167
95 343 227 419 22 14 189 83 370 155 180 73 341 138 357 146 l28 15 -34 82
c-98 236 -205 522 -197 530 4 4 140 61 302 126 162 66 383 155 491 199 108 45
219 86 247 92 90 19 196 -13 279 -84 45 -38 78 -99 154 -285 28 -69 54 -129
58 -133 5 -4 219 75 477 176 258 102 510 201 559 220 50 19 212 83 360 142
149 59 455 179 680 267 226 88 489 190 585 228 96 38 308 120 470 183 162 63
302 117 310 121 8 3 60 4 115 3 92 -2 106 -5 178 -39z m-1697 -3464 c-4 -9 -9
-15 -11 -12 -3 3 -3 13 1 22 4 9 9 15 11 12 3 -3 3 -13 -1 -22z m-3729 -210
c-3 -3 -12 -4 -19 -1 -8 3 -5 6 6 6 11 1 17 -2 13 -5z"/>
<path d="M7585 7063 c-11 -3 -121 -45 -245 -93 -124 -48 -398 -156 -610 -238
-212 -83 -518 -202 -680 -265 -162 -64 -473 -186 -690 -272 -747 -296 -1285
-505 -1299 -505 -5 0 -11 21 -15 48 -8 59 -45 139 -79 171 -20 18 -25 30 -20
51 3 19 -4 49 -23 89 -53 119 -169 191 -289 178 -65 -7 -195 -60 -225 -92 -17
-18 -34 -25 -60 -25 -67 0 -219 -67 -277 -122 -26 -26 -37 -30 -63 -24 -25 4
-66 -8 -186 -55 -85 -34 -156 -64 -158 -68 -2 -3 50 -143 115 -310 66 -168
116 -308 112 -312 -5 -4 -190 -80 -413 -169 -237 -94 -420 -173 -440 -189
-117 -93 -178 -284 -135 -427 26 -86 290 -738 318 -787 35 -59 109 -118 184
-148 45 -18 78 -23 148 -23 86 0 95 2 215 53 69 29 386 158 705 286 1034 416
1209 486 1228 497 10 5 21 7 24 4 3 -2 -18 -68 -46 -146 -63 -173 -66 -185
-51 -241 17 -61 69 -107 161 -143 41 -16 293 -114 562 -218 268 -103 500 -191
516 -194 39 -8 92 11 121 41 14 15 102 222 214 502 184 459 192 478 221 486
61 18 100 43 128 83 47 67 41 108 -42 307 -39 92 -73 178 -76 190 -6 21 37 39
842 362 514 206 869 354 903 376 96 63 160 181 160 297 0 69 -4 82 -82 269
-67 161 -100 212 -158 245 -28 16 -38 28 -34 38 4 8 9 40 11 70 5 50 1 66 -40
152 -70 150 -156 230 -283 263 -56 14 -127 18 -169 8z m189 -201 c17 -10 40
-32 52 -49 31 -46 87 -194 78 -202 -18 -16 -147 -62 -159 -57 -7 2 -16 18 -20
35 -9 42 -42 81 -69 81 -40 0 -117 -32 -132 -55 -13 -20 -13 -28 2 -71 21 -62
44 -102 63 -110 9 -3 91 -9 182 -14 179 -8 207 -16 251 -68 13 -16 30 -45 38
-63 7 -19 30 -75 52 -126 44 -106 49 -163 18 -223 -26 -51 -53 -69 -190 -125
-211 -88 -294 -61 -368 117 -46 110 -47 105 33 139 108 45 101 46 121 -11 21
-57 47 -90 72 -90 35 0 93 22 119 44 27 24 27 25 15 72 -7 27 -23 67 -35 89
-26 46 -50 53 -197 54 -125 2 -209 18 -249 48 -23 18 -47 54 -76 117 -63 135
-79 190 -72 249 10 79 45 123 131 162 183 85 268 99 340 57z m-571 -252 c14
-36 46 -114 72 -175 93 -220 305 -743 305 -752 0 -4 -39 -23 -87 -42 l-86 -34
-61 64 c-34 35 -139 146 -235 247 -96 100 -176 181 -178 179 -2 -2 11 -35 28
-73 48 -105 209 -494 209 -504 0 -13 -161 -73 -170 -63 -9 10 -106 240 -225
533 -48 118 -112 273 -141 343 -30 70 -52 132 -49 136 6 10 160 71 179 71 7 0
71 -66 141 -147 158 -181 327 -365 331 -360 2 1 -49 128 -112 282 -63 153
-117 288 -120 300 -5 19 4 25 73 52 59 23 81 28 89 20 6 -7 23 -41 37 -77z
m-773 -265 c124 -63 217 -193 311 -435 61 -157 86 -320 64 -420 -28 -128 -149
-220 -302 -228 -95 -5 -161 24 -247 110 -72 72 -128 167 -186 315 -107 271
-107 471 -2 580 88 91 263 129 362 78z m-591 -247 c14 -35 103 -260 199 -501
96 -240 172 -443 169 -450 -5 -13 -152 -70 -168 -65 -9 3 -121 273 -315 761
-51 131 -94 242 -94 247 0 9 146 69 170 70 10 0 24 -23 39 -62z m-2136 -47
c28 -11 63 -55 72 -94 6 -23 3 -28 -31 -42 -20 -8 -38 -14 -39 -13 -1 2 -10
18 -19 36 -19 37 -51 42 -86 14 -18 -14 -21 -25 -16 -45 11 -44 29 -54 118
-61 94 -7 123 -22 152 -80 27 -55 31 -107 11 -145 -30 -59 -159 -101 -217 -70
-19 10 -57 80 -58 106 0 10 49 33 71 33 5 0 15 -13 24 -30 12 -22 22 -30 43
-30 62 1 83 60 37 105 -21 22 -33 25 -94 25 -38 0 -81 4 -95 10 -52 20 -95
126 -76 186 23 69 134 121 203 95z m1824 -62 c24 -12 55 -36 68 -54 14 -17 57
-115 95 -217 78 -206 86 -258 50 -327 -27 -54 -66 -83 -157 -120 -43 -18 -88
-36 -100 -41 -13 -5 -23 -15 -23 -22 0 -6 27 -80 60 -165 33 -84 60 -157 60
-161 0 -12 -166 -76 -178 -68 -5 3 -12 16 -16 28 -3 13 -93 243 -200 511 -188
474 -193 489 -173 498 12 5 105 43 207 84 203 81 238 87 307 54z m-2114 -79
c29 -23 147 -308 147 -356 0 -39 -32 -90 -69 -108 -54 -28 -118 -38 -154 -22
-44 18 -54 36 -121 206 -63 159 -66 192 -24 238 55 59 171 81 221 42z m1620
-440 c111 -283 196 -500 258 -661 l18 -46 -89 -35 -89 -36 -47 122 c-26 66
-73 191 -106 276 -32 85 -64 168 -70 183 -6 15 -12 26 -15 24 -2 -2 17 -152
42 -332 25 -181 42 -332 38 -335 -4 -4 -34 -17 -65 -29 l-58 -21 -51 78 c-105
156 -321 462 -331 468 -5 3 -3 -7 6 -24 19 -36 226 -560 226 -571 0 -8 -169
-75 -175 -69 -3 3 -112 277 -310 781 -55 139 -94 252 -89 256 5 5 56 27 114
49 98 38 106 40 121 24 9 -9 91 -128 182 -264 216 -321 227 -336 227 -310 0
27 -66 494 -85 602 -8 47 -15 93 -15 102 0 12 29 28 103 57 56 22 109 39 117
38 10 -1 60 -117 143 -327z m-1999 120 c38 -99 73 -183 78 -186 5 -3 37 4 70
17 59 22 61 22 74 4 32 -44 20 -58 -87 -99 -55 -21 -104 -34 -108 -30 -5 5
-45 104 -90 219 -46 116 -85 215 -88 221 -4 12 37 32 67 33 11 1 36 -52 84
-179z m938 -420 c74 -107 192 -280 263 -385 71 -104 153 -223 182 -264 29 -41
53 -77 53 -82 0 -4 -12 -12 -27 -17 -16 -6 -58 -22 -95 -36 l-68 -26 -51 80
c-28 44 -58 80 -67 80 -8 0 -64 -19 -124 -42 -122 -47 -115 -34 -96 -166 10
-71 10 -85 -2 -92 -23 -15 -160 -63 -164 -59 -3 2 -23 141 -45 309 -23 168
-59 420 -80 560 -21 140 -35 259 -31 263 13 14 205 86 212 79 3 -4 66 -95 140
-202z m-580 -211 c43 -112 132 -341 198 -509 66 -168 120 -310 120 -316 0 -11
-177 -81 -185 -73 -2 2 -33 81 -69 174 -87 224 -97 247 -110 242 -6 -3 -54
-21 -106 -42 -52 -20 -98 -40 -102 -44 -4 -3 29 -100 73 -215 45 -114 77 -212
73 -216 -5 -5 -46 -22 -92 -38 -74 -26 -84 -28 -91 -13 -10 18 -264 663 -398
1007 -5 14 177 88 188 77 4 -4 42 -97 83 -207 42 -109 79 -202 81 -206 4 -7
209 71 222 83 4 5 -36 119 -101 286 -31 79 -55 145 -53 147 9 9 173 72 181 70
5 -1 45 -94 88 -207z m2955 -196 c45 -114 81 -208 80 -209 -1 -1 -29 9 -61 22
-33 13 -63 21 -68 16 -6 -6 -176 -438 -285 -724 -15 -39 -30 -65 -36 -61 -6 3
-7 1 -3 -5 7 -11 -77 -248 -93 -265 -9 -9 -93 22 -87 32 3 4 1 13 -5 21 -7 12
-9 12 -9 -4 0 -13 -5 -16 -17 -11 -10 4 -52 20 -93 35 -129 49 -190 77 -184
82 3 3 -1 6 -8 5 -34 -1 -49 4 -42 15 4 7 3 8 -5 4 -8 -5 -156 41 -188 59 -1
0 20 66 47 145 28 80 50 146 50 147 0 11 50 -7 199 -71 l172 -74 13 32 c7 17
63 165 125 330 62 164 126 330 142 369 32 81 36 73 -61 114 -36 14 -68 29 -72
32 -7 6 376 169 397 170 6 0 47 -93 92 -206z m-3762 58 c22 -10 50 -29 62 -43
19 -20 103 -207 103 -228 0 -8 -15 -14 -121 -54 l-67 -24 -21 59 c-29 79 -42
90 -102 88 -27 -2 -49 -6 -49 -10 0 -7 -49 -24 -62 -21 -5 1 -7 -1 -6 -6 1 -4
-4 -19 -10 -35 -10 -23 -7 -38 19 -105 17 -42 69 -176 116 -297 46 -121 91
-228 100 -237 22 -25 68 -22 130 6 73 35 79 50 48 138 -14 39 -22 75 -18 79
11 11 153 69 168 69 7 0 28 -35 46 -77 38 -92 49 -181 27 -233 -19 -44 -67
-102 -79 -94 -5 3 -9 0 -9 -6 0 -6 -4 -8 -10 -5 -5 3 -10 2 -10 -3 0 -14 -79
-44 -92 -36 -7 4 -8 2 -4 -5 6 -8 0 -10 -21 -6 -15 3 -22 2 -15 -1 18 -8 -56
-42 -111 -51 -29 -4 -38 -3 -33 5 8 13 -20 6 -41 -10 -14 -11 -79 15 -112 45
-25 23 -55 85 -101 207 -16 41 -70 181 -120 310 -52 134 -94 257 -97 286 -12
107 42 183 165 235 198 83 255 93 327 60z m2490 -635 c99 -40 179 -77 178 -82
-1 -5 -24 -72 -50 -150 -44 -129 -50 -140 -68 -133 -11 5 -92 36 -180 70 -88
34 -164 65 -168 69 -12 10 81 300 96 300 7 0 93 -33 192 -74z"/>
<path d="M6285 6168 c-60 -13 -103 -47 -131 -104 -21 -44 -24 -62 -22 -130 l3
-79 50 -17 c28 -9 92 -27 142 -41 l92 -25 72 120 c79 133 79 133 21 200 -55
62 -148 93 -227 76z"/>
<path d="M6527 5847 c-31 -57 -57 -112 -57 -122 0 -11 12 -47 25 -80 30 -72
31 -95 6 -95 -24 0 -33 13 -60 87 -13 34 -28 66 -35 71 -11 9 -217 72 -235 72
-28 0 55 -172 115 -239 51 -57 79 -74 146 -91 89 -23 189 33 224 125 25 67 16
198 -22 294 -16 41 -34 76 -39 78 -6 2 -36 -43 -68 -100z"/>
<path d="M5313 5773 c-35 -14 -63 -29 -63 -34 0 -5 30 -83 66 -174 48 -120 71
-165 83 -165 9 0 45 15 81 33 83 41 85 52 29 205 -63 173 -78 184 -196 135z"/>
<path d="M3276 5829 c-14 -11 -26 -26 -26 -34 0 -7 23 -73 52 -145 58 -150 70
-162 133 -136 35 15 37 19 32 49 -8 51 -88 248 -108 268 -25 25 -50 24 -83 -2z"/>
<path d="M3814 5070 c3 -14 22 -117 41 -229 20 -113 37 -207 40 -209 8 -9 165
57 165 69 0 9 -226 369 -241 384 -7 7 -9 2 -5 -15z"/>
<path d="M5890 3625 c-7 -9 -11 -17 -9 -20 3 -2 10 5 17 15 14 24 10 26 -8 5z"/>
<path d="M2270 4049 c0 -5 5 -7 10 -4 6 3 10 8 10 11 0 2 -4 4 -10 4 -5 0 -10
-5 -10 -11z"/>
<path d="M2294 4035 c-3 -8 -1 -27 4 -42 6 -17 11 -21 11 -11 1 9 9 21 18 27
10 5 14 13 10 18 -5 4 -16 -1 -24 -12 -15 -19 -15 -19 -9 8 7 28 -1 37 -10 12z"/>
<path d="M2446 3901 c-4 -5 -2 -12 3 -15 5 -4 12 -2 15 3 4 5 2 12 -3 15 -5 4
-12 2 -15 -3z"/>
<path d="M2487 3893 c-9 -18 9 -48 30 -49 24 -1 39 21 21 32 -7 4 -8 3 -4 -4
10 -16 -5 -15 -26 2 -10 7 -15 16 -11 19 3 4 4 7 0 7 -3 0 -8 -3 -10 -7z"/>
<path d="M2518 3893 c7 -3 16 -2 19 1 4 3 -2 6 -13 5 -11 0 -14 -3 -6 -6z"/>
<path d="M2390 3877 c0 -20 -16 -23 -22 -4 -3 6 -5 -3 -5 -21 0 -21 3 -28 9
-20 6 10 8 10 9 -2 0 -8 5 0 10 19 6 18 8 36 5 39 -3 3 -6 -2 -6 -11z"/>
<path d="M2412 3861 c-7 -19 -9 -37 -6 -40 4 -3 9 0 11 7 3 6 9 12 14 12 15 0
10 -26 -7 -40 -8 -8 -20 -23 -25 -34 -8 -17 -6 -16 9 4 15 18 30 24 63 25 23
0 44 6 46 12 5 14 -34 38 -62 38 -12 0 -21 9 -25 25 -6 24 -6 24 -18 -9z"/>
<path d="M2440 3766 c0 -8 -6 -17 -12 -19 -10 -4 -10 -6 -1 -6 7 -1 10 -8 6
-18 -4 -10 6 -5 25 12 32 28 46 49 17 25 -12 -10 -15 -10 -15 4 0 9 -4 16 -10
16 -5 0 -10 -6 -10 -14z"/>
<path d="M2460 3710 c-9 -6 -10 -10 -3 -10 6 0 15 5 18 10 8 12 4 12 -15 0z"/>
<path d="M2066 3866 c2 -6 13 -12 24 -12 23 0 17 12 -9 19 -12 3 -18 0 -15 -7z"/>
<path d="M2100 3835 c0 -5 5 -17 10 -25 5 -8 10 -10 10 -5 0 6 -5 17 -10 25
-5 8 -10 11 -10 5z"/>
<path d="M2164 3638 c-4 -7 -4 -10 1 -6 4 4 14 0 21 -10 17 -21 18 -36 2 -26
-7 4 -8 3 -4 -4 6 -9 36 -6 36 4 0 1 -11 15 -24 29 -18 19 -26 23 -32 13z"/>
<path d="M2873 3543 c9 -2 23 -2 30 0 6 3 -1 5 -18 5 -16 0 -22 -2 -12 -5z"/>
<path d="M2425 3460 c27 -12 43 -12 25 0 -8 5 -22 9 -30 9 -10 0 -8 -3 5 -9z"/>
<path d="M2475 3450 c-3 -6 1 -7 9 -4 18 7 21 14 7 14 -6 0 -13 -4 -16 -10z"/>
</g>
</svg>
